<mxfile host="app.diagrams.net" modified="2023-09-19T13:36:11.904Z" agent="Mozilla/5.0 (Windows NT 10.0; Win64; x64) AppleWebKit/537.36 (KHTML, like Gecko) Chrome/116.0.0.0 Safari/537.36" etag="BAgxbgSQogJXahmzH31Z" version="21.7.4" type="device">
  <diagram name="Страница — 1" id="5PmmF0yhq_GIC8KVX4t-">
    <mxGraphModel dx="1363" dy="871" grid="1" gridSize="10" guides="1" tooltips="1" connect="1" arrows="1" fold="1" page="1" pageScale="1" pageWidth="3300" pageHeight="2339" math="0" shadow="0">
      <root>
        <mxCell id="0" />
        <mxCell id="1" parent="0" />
        <mxCell id="dPQgb3MlJalZTJGPqsJF-1" value="Cтудент-споживач" style="shape=umlActor;verticalLabelPosition=bottom;verticalAlign=top;html=1;" vertex="1" parent="1">
          <mxGeometry x="170" y="265" width="30" height="60" as="geometry" />
        </mxCell>
        <mxCell id="dPQgb3MlJalZTJGPqsJF-3" value="Авторизувати користувача" style="ellipse;whiteSpace=wrap;html=1;" vertex="1" parent="1">
          <mxGeometry x="570" y="370" width="140" height="70" as="geometry" />
        </mxCell>
        <mxCell id="dPQgb3MlJalZTJGPqsJF-6" value="" style="endArrow=none;html=1;rounded=0;entryX=0;entryY=0.5;entryDx=0;entryDy=0;" edge="1" parent="1" source="dPQgb3MlJalZTJGPqsJF-14" target="dPQgb3MlJalZTJGPqsJF-3">
          <mxGeometry width="50" height="50" relative="1" as="geometry">
            <mxPoint x="540" y="340" as="sourcePoint" />
            <mxPoint x="590" y="290" as="targetPoint" />
          </mxGeometry>
        </mxCell>
        <mxCell id="dPQgb3MlJalZTJGPqsJF-7" value="Створити&amp;nbsp;&lt;br&gt;замовлення" style="ellipse;whiteSpace=wrap;html=1;" vertex="1" parent="1">
          <mxGeometry x="460" y="260" width="140" height="70" as="geometry" />
        </mxCell>
        <mxCell id="dPQgb3MlJalZTJGPqsJF-8" value="" style="endArrow=classic;html=1;rounded=0;entryX=0;entryY=0.5;entryDx=0;entryDy=0;" edge="1" parent="1" source="dPQgb3MlJalZTJGPqsJF-1" target="dPQgb3MlJalZTJGPqsJF-7">
          <mxGeometry width="50" height="50" relative="1" as="geometry">
            <mxPoint x="200" y="320" as="sourcePoint" />
            <mxPoint x="590" y="290" as="targetPoint" />
          </mxGeometry>
        </mxCell>
        <mxCell id="dPQgb3MlJalZTJGPqsJF-11" value="Отримати запит&lt;br&gt;на замовлення" style="ellipse;whiteSpace=wrap;html=1;" vertex="1" parent="1">
          <mxGeometry x="570" y="170" width="140" height="70" as="geometry" />
        </mxCell>
        <mxCell id="dPQgb3MlJalZTJGPqsJF-58" style="edgeStyle=orthogonalEdgeStyle;rounded=0;orthogonalLoop=1;jettySize=auto;html=1;exitX=0.5;exitY=0;exitDx=0;exitDy=0;exitPerimeter=0;endArrow=block;endFill=0;endSize=9;" edge="1" parent="1" source="dPQgb3MlJalZTJGPqsJF-12">
          <mxGeometry relative="1" as="geometry">
            <mxPoint x="43" y="370" as="targetPoint" />
            <mxPoint x="928" y="280" as="sourcePoint" />
            <Array as="points">
              <mxPoint x="985" y="40" />
              <mxPoint x="44" y="40" />
              <mxPoint x="44" y="370" />
            </Array>
          </mxGeometry>
        </mxCell>
        <mxCell id="dPQgb3MlJalZTJGPqsJF-12" value="Упакувальник" style="shape=umlActor;verticalLabelPosition=bottom;verticalAlign=top;html=1;" vertex="1" parent="1">
          <mxGeometry x="970" y="280" width="30" height="60" as="geometry" />
        </mxCell>
        <mxCell id="dPQgb3MlJalZTJGPqsJF-13" value="" style="endArrow=classic;html=1;rounded=0;entryX=1;entryY=0.5;entryDx=0;entryDy=0;" edge="1" parent="1" source="dPQgb3MlJalZTJGPqsJF-12" target="dPQgb3MlJalZTJGPqsJF-11">
          <mxGeometry width="50" height="50" relative="1" as="geometry">
            <mxPoint x="540" y="340" as="sourcePoint" />
            <mxPoint x="800" y="290" as="targetPoint" />
          </mxGeometry>
        </mxCell>
        <mxCell id="dPQgb3MlJalZTJGPqsJF-14" value="Користувач" style="shape=umlActor;verticalLabelPosition=bottom;verticalAlign=top;html=1;" vertex="1" parent="1">
          <mxGeometry x="30" y="375" width="30" height="60" as="geometry" />
        </mxCell>
        <mxCell id="dPQgb3MlJalZTJGPqsJF-15" value="" style="endArrow=block;html=1;rounded=0;entryX=0.5;entryY=0;entryDx=0;entryDy=0;entryPerimeter=0;endFill=0;strokeWidth=1;endSize=11;" edge="1" parent="1" source="dPQgb3MlJalZTJGPqsJF-1" target="dPQgb3MlJalZTJGPqsJF-14">
          <mxGeometry width="50" height="50" relative="1" as="geometry">
            <mxPoint x="540" y="340" as="sourcePoint" />
            <mxPoint x="590" y="290" as="targetPoint" />
          </mxGeometry>
        </mxCell>
        <mxCell id="dPQgb3MlJalZTJGPqsJF-18" value="" style="endArrow=classic;html=1;rounded=0;exitX=0.5;exitY=1;exitDx=0;exitDy=0;entryX=0.5;entryY=0;entryDx=0;entryDy=0;dashed=1;" edge="1" parent="1" source="dPQgb3MlJalZTJGPqsJF-11" target="dPQgb3MlJalZTJGPqsJF-3">
          <mxGeometry width="50" height="50" relative="1" as="geometry">
            <mxPoint x="570" y="315" as="sourcePoint" />
            <mxPoint x="710" y="430" as="targetPoint" />
          </mxGeometry>
        </mxCell>
        <mxCell id="dPQgb3MlJalZTJGPqsJF-19" value="&amp;lt;&amp;lt;include&amp;gt;&amp;gt;" style="edgeLabel;html=1;align=center;verticalAlign=middle;resizable=0;points=[];rotation=90;" vertex="1" connectable="0" parent="dPQgb3MlJalZTJGPqsJF-18">
          <mxGeometry x="-0.1531" relative="1" as="geometry">
            <mxPoint x="13" as="offset" />
          </mxGeometry>
        </mxCell>
        <mxCell id="dPQgb3MlJalZTJGPqsJF-20" value="" style="endArrow=classic;html=1;rounded=0;exitX=0.5;exitY=1;exitDx=0;exitDy=0;entryX=0.5;entryY=0;entryDx=0;entryDy=0;dashed=1;" edge="1" parent="1" source="dPQgb3MlJalZTJGPqsJF-11" target="dPQgb3MlJalZTJGPqsJF-7">
          <mxGeometry width="50" height="50" relative="1" as="geometry">
            <mxPoint x="710" y="210" as="sourcePoint" />
            <mxPoint x="710" y="430" as="targetPoint" />
          </mxGeometry>
        </mxCell>
        <mxCell id="dPQgb3MlJalZTJGPqsJF-21" value="&amp;lt;&amp;lt;include&amp;gt;&amp;gt;" style="edgeLabel;html=1;align=center;verticalAlign=middle;resizable=0;points=[];rotation=-15;" vertex="1" connectable="0" parent="dPQgb3MlJalZTJGPqsJF-20">
          <mxGeometry x="-0.1531" relative="1" as="geometry">
            <mxPoint x="-34" y="-8" as="offset" />
          </mxGeometry>
        </mxCell>
        <mxCell id="dPQgb3MlJalZTJGPqsJF-22" value="Надіслати замовлення" style="ellipse;whiteSpace=wrap;html=1;" vertex="1" parent="1">
          <mxGeometry x="670" y="100" width="140" height="70" as="geometry" />
        </mxCell>
        <mxCell id="dPQgb3MlJalZTJGPqsJF-23" value="" style="endArrow=classic;html=1;rounded=0;entryX=0.5;entryY=1;entryDx=0;entryDy=0;" edge="1" parent="1" source="dPQgb3MlJalZTJGPqsJF-12" target="dPQgb3MlJalZTJGPqsJF-22">
          <mxGeometry width="50" height="50" relative="1" as="geometry">
            <mxPoint x="540" y="340" as="sourcePoint" />
            <mxPoint x="590" y="290" as="targetPoint" />
          </mxGeometry>
        </mxCell>
        <mxCell id="dPQgb3MlJalZTJGPqsJF-24" value="" style="endArrow=classic;html=1;rounded=0;exitX=0;exitY=0.5;exitDx=0;exitDy=0;" edge="1" parent="1" source="dPQgb3MlJalZTJGPqsJF-22" target="dPQgb3MlJalZTJGPqsJF-1">
          <mxGeometry width="50" height="50" relative="1" as="geometry">
            <mxPoint x="540" y="340" as="sourcePoint" />
            <mxPoint x="590" y="290" as="targetPoint" />
          </mxGeometry>
        </mxCell>
        <mxCell id="dPQgb3MlJalZTJGPqsJF-25" value="" style="endArrow=classic;html=1;rounded=0;exitX=0.5;exitY=1;exitDx=0;exitDy=0;entryX=0.6;entryY=0.029;entryDx=0;entryDy=0;dashed=1;entryPerimeter=0;" edge="1" parent="1" source="dPQgb3MlJalZTJGPqsJF-22" target="dPQgb3MlJalZTJGPqsJF-3">
          <mxGeometry width="50" height="50" relative="1" as="geometry">
            <mxPoint x="570" y="380" as="sourcePoint" />
            <mxPoint x="690" y="470" as="targetPoint" />
          </mxGeometry>
        </mxCell>
        <mxCell id="dPQgb3MlJalZTJGPqsJF-26" value="&amp;lt;&amp;lt;include&amp;gt;&amp;gt;" style="edgeLabel;html=1;align=center;verticalAlign=middle;resizable=0;points=[];rotation=-75;" vertex="1" connectable="0" parent="dPQgb3MlJalZTJGPqsJF-25">
          <mxGeometry x="-0.1531" relative="1" as="geometry">
            <mxPoint x="-8" y="44" as="offset" />
          </mxGeometry>
        </mxCell>
        <mxCell id="dPQgb3MlJalZTJGPqsJF-28" value="" style="endArrow=classic;html=1;rounded=0;exitX=0.5;exitY=1;exitDx=0;exitDy=0;entryX=0;entryY=0;entryDx=0;entryDy=0;dashed=1;" edge="1" parent="1" source="dPQgb3MlJalZTJGPqsJF-7" target="dPQgb3MlJalZTJGPqsJF-3">
          <mxGeometry width="50" height="50" relative="1" as="geometry">
            <mxPoint x="530" y="330" as="sourcePoint" />
            <mxPoint x="640" y="370" as="targetPoint" />
          </mxGeometry>
        </mxCell>
        <mxCell id="dPQgb3MlJalZTJGPqsJF-29" value="&amp;lt;&amp;lt;include&amp;gt;&amp;gt;" style="edgeLabel;html=1;align=center;verticalAlign=middle;resizable=0;points=[];rotation=40;" vertex="1" connectable="0" parent="dPQgb3MlJalZTJGPqsJF-28">
          <mxGeometry x="-0.1531" relative="1" as="geometry">
            <mxPoint x="-14" y="3" as="offset" />
          </mxGeometry>
        </mxCell>
        <mxCell id="dPQgb3MlJalZTJGPqsJF-56" style="edgeStyle=orthogonalEdgeStyle;rounded=0;orthogonalLoop=1;jettySize=auto;html=1;endArrow=block;endFill=0;endSize=9;" edge="1" parent="1">
          <mxGeometry relative="1" as="geometry">
            <mxPoint x="990" y="790" as="sourcePoint" />
            <mxPoint x="50" y="460" as="targetPoint" />
          </mxGeometry>
        </mxCell>
        <mxCell id="dPQgb3MlJalZTJGPqsJF-34" value="Створити&amp;nbsp;&lt;br&gt;запит на консультацію" style="ellipse;whiteSpace=wrap;html=1;" vertex="1" parent="1">
          <mxGeometry x="460" y="500" width="140" height="70" as="geometry" />
        </mxCell>
        <mxCell id="dPQgb3MlJalZTJGPqsJF-35" value="" style="endArrow=classic;html=1;rounded=0;entryX=0;entryY=0;entryDx=0;entryDy=0;" edge="1" parent="1" target="dPQgb3MlJalZTJGPqsJF-34">
          <mxGeometry width="50" height="50" relative="1" as="geometry">
            <mxPoint x="200" y="300" as="sourcePoint" />
            <mxPoint x="390" y="490" as="targetPoint" />
          </mxGeometry>
        </mxCell>
        <mxCell id="dPQgb3MlJalZTJGPqsJF-36" value="" style="endArrow=classic;html=1;rounded=0;entryX=0;entryY=1;entryDx=0;entryDy=0;dashed=1;exitX=0.5;exitY=0;exitDx=0;exitDy=0;" edge="1" parent="1" source="dPQgb3MlJalZTJGPqsJF-34" target="dPQgb3MlJalZTJGPqsJF-3">
          <mxGeometry width="50" height="50" relative="1" as="geometry">
            <mxPoint x="610" y="490" as="sourcePoint" />
            <mxPoint x="601" y="390" as="targetPoint" />
          </mxGeometry>
        </mxCell>
        <mxCell id="dPQgb3MlJalZTJGPqsJF-37" value="&amp;lt;&amp;lt;include&amp;gt;&amp;gt;" style="edgeLabel;html=1;align=center;verticalAlign=middle;resizable=0;points=[];rotation=-45;" vertex="1" connectable="0" parent="dPQgb3MlJalZTJGPqsJF-36">
          <mxGeometry x="-0.1531" relative="1" as="geometry">
            <mxPoint x="-14" y="3" as="offset" />
          </mxGeometry>
        </mxCell>
        <mxCell id="dPQgb3MlJalZTJGPqsJF-38" value="Отримати запит&lt;br&gt;на консультацію" style="ellipse;whiteSpace=wrap;html=1;" vertex="1" parent="1">
          <mxGeometry x="730" y="430" width="140" height="70" as="geometry" />
        </mxCell>
        <mxCell id="dPQgb3MlJalZTJGPqsJF-39" value="Проаналізувати інформацію" style="ellipse;whiteSpace=wrap;html=1;" vertex="1" parent="1">
          <mxGeometry x="700" y="550" width="140" height="70" as="geometry" />
        </mxCell>
        <mxCell id="dPQgb3MlJalZTJGPqsJF-40" value="Надіслати відповідь" style="ellipse;whiteSpace=wrap;html=1;" vertex="1" parent="1">
          <mxGeometry x="560" y="650" width="140" height="70" as="geometry" />
        </mxCell>
        <mxCell id="dPQgb3MlJalZTJGPqsJF-41" value="" style="endArrow=classic;html=1;rounded=0;exitX=0;exitY=0.5;exitDx=0;exitDy=0;" edge="1" parent="1" source="dPQgb3MlJalZTJGPqsJF-40" target="dPQgb3MlJalZTJGPqsJF-1">
          <mxGeometry width="50" height="50" relative="1" as="geometry">
            <mxPoint x="520" y="510" as="sourcePoint" />
            <mxPoint x="570" y="460" as="targetPoint" />
          </mxGeometry>
        </mxCell>
        <mxCell id="dPQgb3MlJalZTJGPqsJF-44" value="" style="endArrow=classic;html=1;rounded=0;entryX=1;entryY=0.5;entryDx=0;entryDy=0;dashed=1;exitX=0.5;exitY=0;exitDx=0;exitDy=0;" edge="1" parent="1" source="dPQgb3MlJalZTJGPqsJF-38" target="dPQgb3MlJalZTJGPqsJF-3">
          <mxGeometry width="50" height="50" relative="1" as="geometry">
            <mxPoint x="550" y="520" as="sourcePoint" />
            <mxPoint x="610" y="450" as="targetPoint" />
          </mxGeometry>
        </mxCell>
        <mxCell id="dPQgb3MlJalZTJGPqsJF-45" value="&amp;lt;&amp;lt;include&amp;gt;&amp;gt;" style="edgeLabel;html=1;align=center;verticalAlign=middle;resizable=0;points=[];rotation=15;" vertex="1" connectable="0" parent="dPQgb3MlJalZTJGPqsJF-44">
          <mxGeometry x="-0.1531" relative="1" as="geometry">
            <mxPoint x="-1" y="-14" as="offset" />
          </mxGeometry>
        </mxCell>
        <mxCell id="dPQgb3MlJalZTJGPqsJF-46" value="" style="endArrow=classic;html=1;rounded=0;entryX=0.5;entryY=1;entryDx=0;entryDy=0;dashed=1;exitX=0.5;exitY=0;exitDx=0;exitDy=0;" edge="1" parent="1" source="dPQgb3MlJalZTJGPqsJF-39" target="dPQgb3MlJalZTJGPqsJF-38">
          <mxGeometry width="50" height="50" relative="1" as="geometry">
            <mxPoint x="560" y="530" as="sourcePoint" />
            <mxPoint x="620" y="460" as="targetPoint" />
          </mxGeometry>
        </mxCell>
        <mxCell id="dPQgb3MlJalZTJGPqsJF-47" value="&amp;lt;&amp;lt;include&amp;gt;&amp;gt;" style="edgeLabel;html=1;align=center;verticalAlign=middle;resizable=0;points=[];rotation=-60;" vertex="1" connectable="0" parent="dPQgb3MlJalZTJGPqsJF-46">
          <mxGeometry x="-0.1531" relative="1" as="geometry">
            <mxPoint x="-13" y="-9" as="offset" />
          </mxGeometry>
        </mxCell>
        <mxCell id="dPQgb3MlJalZTJGPqsJF-48" value="" style="endArrow=classic;html=1;rounded=0;entryX=0.5;entryY=1;entryDx=0;entryDy=0;dashed=1;exitX=0.5;exitY=0;exitDx=0;exitDy=0;" edge="1" parent="1" source="dPQgb3MlJalZTJGPqsJF-40" target="dPQgb3MlJalZTJGPqsJF-3">
          <mxGeometry width="50" height="50" relative="1" as="geometry">
            <mxPoint x="570" y="540" as="sourcePoint" />
            <mxPoint x="630" y="470" as="targetPoint" />
          </mxGeometry>
        </mxCell>
        <mxCell id="dPQgb3MlJalZTJGPqsJF-49" value="&amp;lt;&amp;lt;include&amp;gt;&amp;gt;" style="edgeLabel;html=1;align=center;verticalAlign=middle;resizable=0;points=[];rotation=-90;" vertex="1" connectable="0" parent="dPQgb3MlJalZTJGPqsJF-48">
          <mxGeometry x="-0.1531" relative="1" as="geometry">
            <mxPoint x="-14" y="3" as="offset" />
          </mxGeometry>
        </mxCell>
        <mxCell id="dPQgb3MlJalZTJGPqsJF-50" value="" style="endArrow=classic;html=1;rounded=0;entryX=0;entryY=1;entryDx=0;entryDy=0;dashed=1;exitX=1;exitY=0;exitDx=0;exitDy=0;" edge="1" parent="1" source="dPQgb3MlJalZTJGPqsJF-40" target="dPQgb3MlJalZTJGPqsJF-39">
          <mxGeometry width="50" height="50" relative="1" as="geometry">
            <mxPoint x="580" y="550" as="sourcePoint" />
            <mxPoint x="640" y="480" as="targetPoint" />
          </mxGeometry>
        </mxCell>
        <mxCell id="dPQgb3MlJalZTJGPqsJF-51" value="&amp;lt;&amp;lt;include&amp;gt;&amp;gt;" style="edgeLabel;html=1;align=center;verticalAlign=middle;resizable=0;points=[];rotation=-45;" vertex="1" connectable="0" parent="dPQgb3MlJalZTJGPqsJF-50">
          <mxGeometry x="-0.1531" relative="1" as="geometry">
            <mxPoint x="-14" y="3" as="offset" />
          </mxGeometry>
        </mxCell>
        <mxCell id="dPQgb3MlJalZTJGPqsJF-53" value="" style="endArrow=classic;html=1;rounded=0;entryX=1;entryY=0.5;entryDx=0;entryDy=0;" edge="1" parent="1" source="dPQgb3MlJalZTJGPqsJF-31" target="dPQgb3MlJalZTJGPqsJF-38">
          <mxGeometry width="50" height="50" relative="1" as="geometry">
            <mxPoint x="520" y="510" as="sourcePoint" />
            <mxPoint x="570" y="460" as="targetPoint" />
          </mxGeometry>
        </mxCell>
        <mxCell id="dPQgb3MlJalZTJGPqsJF-54" value="" style="endArrow=classic;html=1;rounded=0;entryX=1;entryY=0.5;entryDx=0;entryDy=0;" edge="1" parent="1" source="dPQgb3MlJalZTJGPqsJF-31" target="dPQgb3MlJalZTJGPqsJF-39">
          <mxGeometry width="50" height="50" relative="1" as="geometry">
            <mxPoint x="900" y="570" as="sourcePoint" />
            <mxPoint x="880" y="475" as="targetPoint" />
          </mxGeometry>
        </mxCell>
        <mxCell id="dPQgb3MlJalZTJGPqsJF-57" value="" style="endArrow=none;html=1;rounded=0;" edge="1" parent="1" target="dPQgb3MlJalZTJGPqsJF-31">
          <mxGeometry width="50" height="50" relative="1" as="geometry">
            <mxPoint x="990" y="790" as="sourcePoint" />
            <mxPoint x="570" y="460" as="targetPoint" />
          </mxGeometry>
        </mxCell>
        <mxCell id="dPQgb3MlJalZTJGPqsJF-59" value="" style="endArrow=none;html=1;rounded=0;" edge="1" parent="1">
          <mxGeometry width="50" height="50" relative="1" as="geometry">
            <mxPoint x="280" y="760" as="sourcePoint" />
            <mxPoint x="280" y="80" as="targetPoint" />
          </mxGeometry>
        </mxCell>
        <mxCell id="dPQgb3MlJalZTJGPqsJF-60" value="" style="endArrow=none;html=1;rounded=0;" edge="1" parent="1">
          <mxGeometry width="50" height="50" relative="1" as="geometry">
            <mxPoint x="280" y="80" as="sourcePoint" />
            <mxPoint x="920" y="80" as="targetPoint" />
          </mxGeometry>
        </mxCell>
        <mxCell id="dPQgb3MlJalZTJGPqsJF-61" value="" style="endArrow=none;html=1;rounded=0;" edge="1" parent="1">
          <mxGeometry width="50" height="50" relative="1" as="geometry">
            <mxPoint x="920" y="80" as="sourcePoint" />
            <mxPoint x="920" y="760" as="targetPoint" />
          </mxGeometry>
        </mxCell>
        <mxCell id="dPQgb3MlJalZTJGPqsJF-62" value="" style="endArrow=none;html=1;rounded=0;" edge="1" parent="1">
          <mxGeometry width="50" height="50" relative="1" as="geometry">
            <mxPoint x="280" y="760" as="sourcePoint" />
            <mxPoint x="920" y="760" as="targetPoint" />
          </mxGeometry>
        </mxCell>
        <mxCell id="dPQgb3MlJalZTJGPqsJF-64" value="" style="endArrow=classic;html=1;rounded=0;entryX=1;entryY=0.5;entryDx=0;entryDy=0;" edge="1" parent="1" source="dPQgb3MlJalZTJGPqsJF-31" target="dPQgb3MlJalZTJGPqsJF-40">
          <mxGeometry width="50" height="50" relative="1" as="geometry">
            <mxPoint x="960" y="630" as="sourcePoint" />
            <mxPoint x="570" y="400" as="targetPoint" />
          </mxGeometry>
        </mxCell>
        <mxCell id="dPQgb3MlJalZTJGPqsJF-31" value="Сомнолог-консультант" style="shape=umlActor;verticalLabelPosition=bottom;verticalAlign=top;html=1;" vertex="1" parent="1">
          <mxGeometry x="970" y="590" width="30" height="60" as="geometry" />
        </mxCell>
      </root>
    </mxGraphModel>
  </diagram>
</mxfile>
